<?xml version="1.0" encoding="UTF-8" standalone="no"?>
<svg
   width="882"
   height="648"
   viewBox="0 0 2944 2162"
   fill="none"
   version="1.1"
   id="svg147"
   sodipodi:docname="borkweb.svg"
   inkscape:version="1.1.1 (3bf5ae0d25, 2021-09-20)"
   inkscape:export-filename="/home/metti/code/borkweb/logo/borkweb.png"
   inkscape:export-xdpi="96"
   inkscape:export-ydpi="96"
   xmlns:inkscape="http://www.inkscape.org/namespaces/inkscape"
   xmlns:sodipodi="http://sodipodi.sourceforge.net/DTD/sodipodi-0.dtd"
   xmlns="http://www.w3.org/2000/svg"
   xmlns:svg="http://www.w3.org/2000/svg">
  <sodipodi:namedview
     id="namedview149"
     pagecolor="#ffffff"
     bordercolor="#666666"
     borderopacity="1.0"
     inkscape:pageshadow="2"
     inkscape:pageopacity="0.0"
     inkscape:pagecheckerboard="0"
     showgrid="false"
     inkscape:zoom="0.75617284"
     inkscape:cx="191.09388"
     inkscape:cy="380.86531"
     inkscape:window-width="1366"
     inkscape:window-height="699"
     inkscape:window-x="0"
     inkscape:window-y="0"
     inkscape:window-maximized="1"
     inkscape:current-layer="text1411" />
  <path
     fill-rule="evenodd"
     clip-rule="evenodd"
     d="M1742.91 1219.89C1857.93 1138.38 1933 1004.21 1933 852.5C1933 603.972 1761 280.5 1483 139C1207.5 288 1033 603.972 1033 852.5C1033 1004.21 1108.07 1138.38 1223.09 1219.89C1218.98 1220.44 1214.95 1221.14 1211 1222C1123.61 1241.07 1017 1385.05 1017 1385.05H1281C1327.97 1385.05 1372.63 1367.41 1407.96 1347.62C1425.12 1370.32 1452.34 1385 1483 1385C1513.66 1385 1540.89 1370.32 1558.04 1347.62C1593.37 1367.41 1638.03 1385.05 1685 1385.05H1949C1949 1385.05 1842.39 1241.07 1755 1222C1751.05 1221.14 1747.02 1220.44 1742.91 1219.89Z"
     fill="url(#paint0_linear)"
     id="path96"
     style="fill:#1a1a1a" />
  <circle
     cx="1482.5"
     cy="878.5"
     r="311.5"
     fill="white"
     id="circle98" />
  <path
     d="M1212 745.5C1396.5 758.5 1505.5 713.5 1581 602C1581 602 1435.5 553 1347 602C1258.8 650.834 1212 745.5 1212 745.5Z"
     fill="#B4B4B4"
     id="path100" />
  <path
     d="M1728 718C1654 710 1588 686 1556.5 595.5C1556.5 595.5 1621.93 610.435 1688 670.614C1756.62 733.114 1728 718 1728 718Z"
     fill="#B4B4B4"
     id="path102" />
  <circle
     cx="1482.5"
     cy="878.5"
     r="311.5"
     stroke="#0A0000"
     stroke-width="40"
     id="circle104" />
  <path
     d="M1544 745H1421L1451 775V865C1455.5 835.5 1511.5 834.5 1514.5 865L1522 775L1544 745Z"
     fill="black"
     id="path106" />
  <path
     d="M1098.12 785C1098.12 762.909 1116.03 745 1138.12 745H1423.02C1447.2 745 1465.85 766.292 1462.67 790.264L1437.91 976.764C1435.27 996.646 1418.31 1011.5 1398.26 1011.5H1138.12C1116.03 1011.5 1098.12 993.591 1098.12 971.5V785Z"
     fill="black"
     id="path108" />
  <path
     d="M1216.1 967.55V951.05H1210.55C1206.95 951.05 1204.55 948.5 1203.35 944.75L1180.55 876.05C1179.05 871.7 1177.25 868.55 1174.85 866.15C1170.35 861.5 1164.5 860 1157.9 860H1150.7V877.25H1155.5C1159.55 877.25 1162.7 878.75 1164.05 883.55L1167.2 894.65L1139 967.55H1159.55L1176.5 919.55L1185.5 948.5C1188.95 959.75 1194.8 967.55 1208 967.55H1216.1Z"
     fill="white"
     id="path110" />
  <path
     d="M1248.8 951.05V967.55H1304.8V951.05H1248.8Z"
     fill="white"
     id="path112" />
  <path
     d="M1503.01 790.267C1499.83 766.294 1518.48 745 1542.66 745H1827C1849.09 745 1867 762.909 1867 785V971.096C1867 993.187 1849.09 1011.1 1827 1011.1H1567.38C1547.33 1011.1 1530.37 996.244 1527.73 976.362L1503.01 790.267Z"
     fill="black"
     id="path114" />
  <path
     d="M1649.3 968V951.5H1643.75C1640.15 951.5 1637.75 948.95 1636.55 945.2L1613.75 876.5C1612.25 872.15 1610.45 869 1608.05 866.6C1603.55 861.95 1597.7 860.45 1591.1 860.45H1583.9V877.7H1588.7C1592.75 877.7 1595.9 879.2 1597.25 884L1600.4 895.1L1572.2 968H1592.75L1609.7 920L1618.7 948.95C1622.15 960.2 1628 968 1641.2 968H1649.3Z"
     fill="white"
     id="path116" />
  <path
     d="M1682 951.5V968H1738V951.5H1682Z"
     fill="white"
     id="path118" />
  <defs
     id="defs145">
    <rect
       x="421.8141"
       y="403.87732"
       width="314.14816"
       height="232.70283"
       id="rect13165" />
    <linearGradient
       id="paint0_linear"
       x1="1499"
       y1="139"
       x2="1499"
       y2="1385.52"
       gradientUnits="userSpaceOnUse">
      <stop
         stop-color="#E41F26"
         id="stop140" />
      <stop
         offset="1"
         stop-color="#B70000"
         id="stop142" />
    </linearGradient>
  </defs>
  <g
     aria-label="bork·web"
     id="text1411"
     style="font-size:320.435px;line-height:1.25;font-family:'CaskaydiaMono Nerd Font Mono';-inkscape-font-specification:'CaskaydiaMono Nerd Font Mono';fill:#000000;stroke-width:3.33787">
    <path
       d="m 815.93943,1724.6822 q -11.89115,0 -23.46936,-0.9387 -11.57822,-0.7824 -23.62583,-2.1905 v -234.6936 h 42.40131 v 98.8842 h 4.38095 q 4.22449,-33.17 39.42853,-33.17 31.29248,0 48.34688,19.5578 17.21086,19.5578 17.21086,55.5441 0,46.1564 -27.38092,71.6598 -27.22446,25.3469 -77.29242,25.3469 z m -4.69388,-96.3808 v 56.3265 q 2.81633,0.1564 5.63265,0.1564 2.81632,0 5.63265,0 26.12922,0 40.3673,-14.8639 14.39454,-15.0204 14.39454,-42.2449 0,-16.8979 -7.97959,-25.9727 -7.82312,-9.2313 -22.37412,-9.2313 -35.67343,0 -35.67343,35.8299 z"
       style="font-weight:bold;-inkscape-font-specification:'CaskaydiaMono Nerd Font Mono Bold'"
       id="path839" />
    <path
       d="m 1027.6331,1724.6822 q -35.82993,0 -55.5442,-22.5306 -19.71426,-22.5305 -19.71426,-63.5237 0,-41.1496 19.71426,-63.5237 19.71427,-22.5306 55.5442,-22.5306 35.8298,0 55.5441,22.5306 19.7143,22.3741 19.7143,63.5237 0,40.9932 -19.7143,63.5237 -19.7143,22.5306 -55.5441,22.5306 z m 0,-40.2108 q 15.3333,0 23.6258,-11.8912 8.2925,-12.0476 8.2925,-33.9523 0,-22.0612 -8.2925,-33.9523 -8.2925,-11.8912 -23.6258,-11.8912 -15.1769,0 -23.6259,11.8912 -8.29247,11.8911 -8.29247,33.9523 0,21.9047 8.29247,33.9523 8.449,11.8912 23.6259,11.8912 z"
       style="font-weight:bold;-inkscape-font-specification:'CaskaydiaMono Nerd Font Mono Bold'"
       id="path841" />
    <path
       d="m 1208.6601,1650.2061 v 35.0476 h 38.8026 v 36.2993 h -116.0951 v -36.2993 h 35.0476 v -93.2516 h -28.7891 v -36.2993 h 64.7755 l 4.8503,37.3945 h 5.9456 q 2.5034,-40.5237 42.4013,-40.5237 23.6258,0 36.1428,17.3673 12.6734,17.3673 12.6734,50.068 h -42.2448 q 0,-14.7075 -5.4762,-21.1224 -5.3197,-6.415 -17.2109,-6.415 -15.4897,0 -23.1564,15.0204 -7.6666,15.0204 -7.6666,42.7142 z"
       style="font-weight:bold;-inkscape-font-specification:'CaskaydiaMono Nerd Font Mono Bold'"
       id="path843" />
    <path
       d="m 1331.6395,1721.553 v -234.6936 h 42.4013 v 135.4964 h 2.5034 q 18.619,0 30.5102,-6.4149 12.0476,-6.5715 18.9319,-21.1225 6.8844,-14.7074 10.0136,-39.1156 h 43.653 q -7.5102,58.9864 -35.0475,85.272 l 45.687,80.5782 h -50.2245 l -31.136,-61.6462 q -11.2653,2.6599 -24.5646,2.6599 h -10.3265 v 58.9863 z"
       style="font-weight:bold;-inkscape-font-specification:'CaskaydiaMono Nerd Font Mono Bold'"
       id="path845" />
    <path
       d="m 1590.8977,1638.7844 q -11.8911,0 -20.1836,-8.2925 -8.2926,-8.449 -8.2926,-20.1837 0,-11.8911 8.2926,-20.1836 8.2925,-8.2925 20.1836,-8.2925 11.8911,0 20.1837,8.2925 8.2925,8.2925 8.2925,20.1836 0,11.7347 -8.2925,20.1837 -8.2926,8.2925 -20.1837,8.2925 z"
       style="font-weight:bold;-inkscape-font-specification:'CaskaydiaMono Nerd Font Mono Bold'"
       id="path847" />
    <path
       d="m 1794.7682,1721.553 -16.7415,-125.0135 h -1.8775 l -16.7415,125.0135 H 1704.02 l -10.9523,-165.8502 h 41.1496 l 5.9455,126.4217 h 2.8164 l 18.9319,-126.4217 h 30.3537 l 18.932,126.4217 h 2.8163 l 10.17,-126.4217 h 40.0544 l -15.6462,165.8502 z"
       style="font-weight:bold;-inkscape-font-specification:'CaskaydiaMono Nerd Font Mono Bold'"
       id="path849" />
    <path
       d="m 1979.5503,1724.6822 q -43.0271,0 -66.4965,-22.2176 -23.4694,-22.3742 -23.4694,-64.1496 0,-40.6802 19.8708,-63.2108 20.0271,-22.5306 56.3264,-22.5306 35.517,0 54.9183,20.8095 19.4014,20.8095 19.4014,60.5509 0,11.2653 -0.9388,21.4354 h -105.2992 q 9.7007,29.2585 49.4421,29.2585 11.2653,0 22.2177,-1.0953 10.9523,-1.2517 22.3741,-3.2857 l 4.068,40.0544 q -15.9591,2.8163 -29.102,3.5986 -13.1428,0.7823 -23.3129,0.7823 z m -47.721,-98.7277 h 66.653 q 0,-16.7415 -8.6055,-25.6599 -8.4489,-8.9183 -23.7823,-8.9183 -14.3945,0 -23.3129,9.0748 -8.7618,8.9183 -10.9523,25.5034 z"
       style="font-weight:bold;-inkscape-font-specification:'CaskaydiaMono Nerd Font Mono Bold'"
       id="path851" />
    <path
       d="m 2130.2236,1724.6822 q -11.8911,0 -23.4694,-0.9387 -11.5782,-0.7824 -23.6258,-2.1905 v -234.6936 h 42.4013 v 98.8842 h 4.381 q 4.2245,-33.17 39.4285,-33.17 31.2925,0 48.3469,19.5578 17.2109,19.5578 17.2109,55.5441 0,46.1564 -27.381,71.6598 -27.2244,25.3469 -77.2924,25.3469 z m -4.6939,-96.3808 v 56.3265 q 2.8164,0.1564 5.6327,0.1564 2.8163,0 5.6326,0 26.1292,0 40.3673,-14.8639 14.3946,-15.0204 14.3946,-42.2449 0,-16.8979 -7.9796,-25.9727 -7.8231,-9.2313 -22.3741,-9.2313 -35.6735,0 -35.6735,35.8299 z"
       style="font-weight:bold;-inkscape-font-specification:'CaskaydiaMono Nerd Font Mono Bold'"
       id="path853" />
  </g>
  <text
     xml:space="preserve"
     transform="matrix(3.3378685,0,0,3.3378685,0,-0.46938776)"
     id="text13163"
     style="fill:black;fill-opacity:1;line-height:1.25;stroke:none;font-family:sans-serif;font-style:normal;font-weight:normal;font-size:40px;white-space:pre;shape-inside:url(#rect13165)" />
</svg>
