<?xml version="1.0" encoding="UTF-8" standalone="no"?>
<svg
   width="882"
   height="648"
   viewBox="0 0 2944 2162"
   fill="none"
   version="1.1"
   id="svg147"
   sodipodi:docname="borkweb.svg"
   inkscape:version="1.1.1 (3bf5ae0d25, 2021-09-20)"
   inkscape:export-filename="/home/metti/code/borkweb/logo/borkweb.png"
   inkscape:export-xdpi="96"
   inkscape:export-ydpi="96"
   xmlns:inkscape="http://www.inkscape.org/namespaces/inkscape"
   xmlns:sodipodi="http://sodipodi.sourceforge.net/DTD/sodipodi-0.dtd"
   xmlns="http://www.w3.org/2000/svg"
   xmlns:svg="http://www.w3.org/2000/svg">
  <sodipodi:namedview
     id="namedview149"
     pagecolor="#ffffff"
     bordercolor="#666666"
     borderopacity="1.0"
     inkscape:pageshadow="2"
     inkscape:pageopacity="0.0"
     inkscape:pagecheckerboard="0"
     showgrid="false"
     inkscape:zoom="0.75617284"
     inkscape:cx="190.43265"
     inkscape:cy="380.86531"
     inkscape:window-width="1366"
     inkscape:window-height="699"
     inkscape:window-x="0"
     inkscape:window-y="0"
     inkscape:window-maximized="1"
     inkscape:current-layer="svg147" />
  <path
     fill-rule="evenodd"
     clip-rule="evenodd"
     d="M1742.91 1219.89C1857.93 1138.38 1933 1004.21 1933 852.5C1933 603.972 1761 280.5 1483 139C1207.5 288 1033 603.972 1033 852.5C1033 1004.21 1108.07 1138.38 1223.09 1219.89C1218.98 1220.44 1214.95 1221.14 1211 1222C1123.61 1241.07 1017 1385.05 1017 1385.05H1281C1327.97 1385.05 1372.63 1367.41 1407.96 1347.62C1425.12 1370.32 1452.34 1385 1483 1385C1513.66 1385 1540.89 1370.32 1558.04 1347.62C1593.37 1367.41 1638.03 1385.05 1685 1385.05H1949C1949 1385.05 1842.39 1241.07 1755 1222C1751.05 1221.14 1747.02 1220.44 1742.91 1219.89Z"
     fill="url(#paint0_linear)"
     id="path96"
     style="fill:#1a1a1a" />
  <circle
     cx="1482.5"
     cy="878.5"
     r="311.5"
     fill="white"
     id="circle98" />
  <path
     d="M1212 745.5C1396.5 758.5 1505.5 713.5 1581 602C1581 602 1435.5 553 1347 602C1258.8 650.834 1212 745.5 1212 745.5Z"
     fill="#B4B4B4"
     id="path100" />
  <path
     d="M1728 718C1654 710 1588 686 1556.5 595.5C1556.5 595.5 1621.93 610.435 1688 670.614C1756.62 733.114 1728 718 1728 718Z"
     fill="#B4B4B4"
     id="path102" />
  <circle
     cx="1482.5"
     cy="878.5"
     r="311.5"
     stroke="#0A0000"
     stroke-width="40"
     id="circle104" />
  <path
     d="M1544 745H1421L1451 775V865C1455.5 835.5 1511.5 834.5 1514.5 865L1522 775L1544 745Z"
     fill="black"
     id="path106" />
  <path
     d="M1098.12 785C1098.12 762.909 1116.03 745 1138.12 745H1423.02C1447.2 745 1465.85 766.292 1462.67 790.264L1437.91 976.764C1435.27 996.646 1418.31 1011.5 1398.26 1011.5H1138.12C1116.03 1011.5 1098.12 993.591 1098.12 971.5V785Z"
     fill="black"
     id="path108" />
  <path
     d="M1216.1 967.55V951.05H1210.55C1206.95 951.05 1204.55 948.5 1203.35 944.75L1180.55 876.05C1179.05 871.7 1177.25 868.55 1174.85 866.15C1170.35 861.5 1164.5 860 1157.9 860H1150.7V877.25H1155.5C1159.55 877.25 1162.7 878.75 1164.05 883.55L1167.2 894.65L1139 967.55H1159.55L1176.5 919.55L1185.5 948.5C1188.95 959.75 1194.8 967.55 1208 967.55H1216.1Z"
     fill="white"
     id="path110" />
  <path
     d="M1248.8 951.05V967.55H1304.8V951.05H1248.8Z"
     fill="white"
     id="path112" />
  <path
     d="M1503.01 790.267C1499.83 766.294 1518.48 745 1542.66 745H1827C1849.09 745 1867 762.909 1867 785V971.096C1867 993.187 1849.09 1011.1 1827 1011.1H1567.38C1547.33 1011.1 1530.37 996.244 1527.73 976.362L1503.01 790.267Z"
     fill="black"
     id="path114" />
  <path
     d="M1649.3 968V951.5H1643.75C1640.15 951.5 1637.75 948.95 1636.55 945.2L1613.75 876.5C1612.25 872.15 1610.45 869 1608.05 866.6C1603.55 861.95 1597.7 860.45 1591.1 860.45H1583.9V877.7H1588.7C1592.75 877.7 1595.9 879.2 1597.25 884L1600.4 895.1L1572.2 968H1592.75L1609.7 920L1618.7 948.95C1622.15 960.2 1628 968 1641.2 968H1649.3Z"
     fill="white"
     id="path116" />
  <path
     d="M1682 951.5V968H1738V951.5H1682Z"
     fill="white"
     id="path118" />
  <defs
     id="defs145">
    <rect
       x="421.8141"
       y="403.87732"
       width="314.14816"
       height="232.70283"
       id="rect13165" />
    <linearGradient
       id="paint0_linear"
       x1="1499"
       y1="139"
       x2="1499"
       y2="1385.52"
       gradientUnits="userSpaceOnUse">
      <stop
         stop-color="#E41F26"
         id="stop140" />
      <stop
         offset="1"
         stop-color="#B70000"
         id="stop142" />
    </linearGradient>
  </defs>
  <text
     xml:space="preserve"
     style="font-style:normal;font-variant:normal;font-weight:normal;font-stretch:normal;font-size:320.435px;line-height:1.25;font-family:'CaskaydiaMono Nerd Font Mono';-inkscape-font-specification:'CaskaydiaMono Nerd Font Mono';fill:#000000;fill-opacity:1;stroke:none;stroke-width:3.33787"
     x="746.00073"
     y="1721.553"
     id="text1411"><tspan
       sodipodi:role="line"
       id="tspan1409"
       style="font-style:normal;font-variant:normal;font-weight:bold;font-stretch:normal;font-size:320.435px;font-family:'CaskaydiaMono Nerd Font Mono';-inkscape-font-specification:'CaskaydiaMono Nerd Font Mono Bold';stroke-width:3.33787"
       x="746.00073"
       y="1721.553">bork·web</tspan></text>
  <text
     xml:space="preserve"
     transform="matrix(3.3378685,0,0,3.3378685,0,-0.46938776)"
     id="text13163"
     style="fill:black;fill-opacity:1;line-height:1.25;stroke:none;font-family:sans-serif;font-style:normal;font-weight:normal;font-size:40px;white-space:pre;shape-inside:url(#rect13165)" />
</svg>
